# xmcd
# Track frame offsets:
# 150
# 16098
# 38598
# 51502
# 68063
# 83225
# 97902
# 113981
# 131221
# 145395
# 158457
# 170730
# 182242
# 198638
# 218383
# 235032
# 251532
# 269483
# 289530
# 301867
#
# Disc length: 4248 seconds
# Revision: 0
# Processed by: cddbd v1.5.2PL0 Copyright (c) Steve Scherf et al.
# Submitted via: VisiTrax 2.11.3.279 - For more info visit www.synapsa.com
#
DISCID=16109614
DTITLE=Various (1960's-2010's) Pop and Prog Pop and Synth Pop and Rock and Glam Roc
DTITLE=k and Prog Rock and New Wave and Blues and Soul and Disco and New Romantics and Ra
DTITLE=p and HipHop Artists - 100 Hits: Great British Songs: 100 Tracks From Cl
DTITLE=assic British Artists - CD1 of 5: *ReMastered Tracks
DYEAR=1968
DGENRE=Pop
TTITLE0=Mott The Hoople - All The Young Dudes*
TTITLE1=Lulu - Watch That Man*
TTITLE2=Fleetwood Mac - Black Magic Wooman*
TTITLE3=Status Quo - Don't Stop*
TTITLE4=Argent - God Gave Rock And Roll To You*
TTITLE5=Chicken Shack - I'd Rather Go Blind*
TTITLE6=Gun - Race With The Devil*
TTITLE7=Roachford - Cuddly Toy*
TTITLE8=Adam and The Ants - Stand And Deliver*
TTITLE9=Jo Boxers - Boxerbeat*
TTITLE10=Bow Wow Wow - Go Wild In The Country*
TTITLE11=Primitives (The) - Crash*
TTITLE12=Haircut 100 - Love Plus One*
TTITLE13=Prefab Sprout - The King Of Rock 'N' Roll*
TTITLE14=Furniture - Brilliant Mind*
TTITLE15=Lotus Eaters The - The First Picture Of You*
TTITLE16=Deacon Blue - Dignity*
TTITLE17=Big Audio Dynamite - E=MC2*
TTITLE18=Secret Affair - Time For Action*
TTITLE19=Ian Dury and The Blockheads - Hit Me With Your Rhythm Stick*
EXTD=Compilation and ReMastering: Demon Music Group/Sony Music:  2017
EXTT0=
EXTT1=
EXTT2=
EXTT3=
EXTT4=
EXTT5=
EXTT6=
EXTT7=
EXTT8=
EXTT9=
EXTT10=
EXTT11=
EXTT12=
EXTT13=
EXTT14=
EXTT15=
EXTT16=
EXTT17=
EXTT18=
EXTT19=
PLAYORDER=
